<?xml version="1.0" encoding="iso-8859-1"?>
<!-- Generator: Adobe Illustrator 18.0.0, SVG Export Plug-In . SVG Version: 6.00 Build 0)  -->
<!DOCTYPE svg PUBLIC "-//W3C//DTD SVG 1.1//EN" "http://www.w3.org/Graphics/SVG/1.1/DTD/svg11.dtd">
<svg version="1.1" id="Capa_1" xmlns="http://www.w3.org/2000/svg" xmlns:xlink="http://www.w3.org/1999/xlink" x="0px" y="0px"
	 viewBox="0 0 297 297" style="enable-background:new 0 0 297 297;" xml:space="preserve">
<g>
	<path d="M297,76.689c0-18.445-15.006-33.451-33.451-33.451H33.451C15.006,43.239,0,58.244,0,76.689v143.622
		c0,18.445,15.006,33.451,33.451,33.451h230.099c18.445,0,33.451-15.006,33.451-33.451V76.689z M33.451,63.512h230.099
		c7.266,0,13.177,5.912,13.177,13.177v18.436H20.273V76.689C20.273,69.423,26.185,63.512,33.451,63.512z M276.727,147.011H20.273
		v-31.613h256.454V147.011z M263.549,233.488H33.451c-7.266,0-13.177-5.912-13.177-13.177v-53.027h256.454v53.027
		C276.727,227.577,270.815,233.488,263.549,233.488z"/>
	<path d="M113.909,198.898H44.727c-5.598,0-10.137,4.539-10.137,10.137s4.539,10.137,10.137,10.137h69.182
		c5.598,0,10.137-4.539,10.137-10.137S119.507,198.898,113.909,198.898z"/>
	<path d="M165.795,198.898H148.5c-5.598,0-10.137,4.539-10.137,10.137s4.539,10.137,10.137,10.137h17.295
		c5.598,0,10.137-4.539,10.137-10.137S171.393,198.898,165.795,198.898z"/>
</g>
<g>
</g>
<g>
</g>
<g>
</g>
<g>
</g>
<g>
</g>
<g>
</g>
<g>
</g>
<g>
</g>
<g>
</g>
<g>
</g>
<g>
</g>
<g>
</g>
<g>
</g>
<g>
</g>
<g>
</g>
</svg>
