<?xml version="1.0" encoding="iso-8859-1"?>
<!-- Generator: Adobe Illustrator 19.0.0, SVG Export Plug-In . SVG Version: 6.00 Build 0)  -->
<svg version="1.1" id="Layer_1" xmlns="http://www.w3.org/2000/svg" xmlns:xlink="http://www.w3.org/1999/xlink" x="0px" y="0px"
	 viewBox="0 0 512 512" style="enable-background:new 0 0 512 512;" xml:space="preserve">
<g>
	<g>
		<path d="M405.333,97.78V74.667c0-11.782-9.551-21.333-21.333-21.333H42.667c-11.782,0-21.333,9.551-21.333,21.333v192
			C9.551,266.667,0,276.218,0,288v106.667C0,406.449,9.551,416,21.333,416h3.654c8.784,24.858,32.474,42.667,60.346,42.667
			c16.397,0,31.344-6.169,42.667-16.303c11.322,10.135,26.269,16.303,42.667,16.303c27.872,0,51.562-17.808,60.346-42.667h135.308
			c8.784,24.858,32.474,42.667,60.346,42.667s51.562-17.808,60.346-42.667h3.654c11.782,0,21.333-9.551,21.333-21.333V288v-64
			C512,160.586,465.864,107.94,405.333,97.78z M469.333,224v42.667h-64v-125.31C442.133,150.832,469.333,184.247,469.333,224z
			 M469.333,346.964c-0.178-0.16-0.365-0.309-0.546-0.467c-0.532-0.466-1.065-0.932-1.612-1.38c-0.044-0.036-0.091-0.07-0.135-0.106
			c-1.966-1.6-4.033-3.078-6.182-4.439c-0.248-0.157-0.491-0.321-0.742-0.475c-0.519-0.319-1.05-0.62-1.578-0.924
			c-0.334-0.192-0.664-0.39-1.002-0.576c-0.502-0.277-1.012-0.538-1.522-0.802c-0.377-0.195-0.753-0.393-1.134-0.581
			c-0.495-0.243-0.996-0.474-1.497-0.705c-0.41-0.189-0.82-0.378-1.235-0.558c-0.491-0.213-0.986-0.416-1.483-0.617
			c-0.438-0.177-0.877-0.352-1.319-0.52c-0.488-0.185-0.979-0.362-1.473-0.536c-0.465-0.163-0.931-0.321-1.401-0.474
			c-0.484-0.157-0.97-0.31-1.459-0.456c-0.491-0.147-0.985-0.285-1.481-0.42c-0.48-0.131-0.96-0.26-1.444-0.379
			c-0.518-0.128-1.04-0.245-1.563-0.361c-0.472-0.104-0.944-0.21-1.42-0.303c-0.551-0.109-1.107-0.203-1.663-0.297
			c-0.458-0.078-0.914-0.16-1.375-0.227c-0.596-0.088-1.198-0.157-1.799-0.229c-0.43-0.051-0.857-0.11-1.289-0.152
			c-0.683-0.067-1.372-0.111-2.061-0.157c-0.358-0.024-0.713-0.058-1.073-0.076c-1.053-0.052-2.113-0.08-3.179-0.08
			c-1.006,0-2.005,0.03-3,0.076c-0.311,0.014-0.62,0.037-0.93,0.056c-0.694,0.042-1.385,0.094-2.073,0.158
			c-0.343,0.032-0.685,0.065-1.027,0.103c-0.695,0.076-1.386,0.165-2.074,0.263c-0.29,0.041-0.582,0.077-0.872,0.122
			c-0.946,0.148-1.886,0.314-2.818,0.503c-0.221,0.045-0.439,0.099-0.66,0.147c-0.721,0.154-1.438,0.318-2.149,0.496
			c-0.353,0.088-0.702,0.184-1.052,0.278c-0.584,0.157-1.164,0.321-1.741,0.494c-0.364,0.109-0.727,0.218-1.088,0.333
			c-0.601,0.192-1.196,0.396-1.789,0.605c-0.307,0.108-0.617,0.209-0.922,0.322c-0.84,0.31-1.671,0.639-2.493,0.983
			c-0.343,0.144-0.68,0.299-1.02,0.448c-0.516,0.227-1.031,0.456-1.54,0.696c-0.386,0.182-0.768,0.369-1.15,0.559
			c-0.462,0.229-0.919,0.464-1.375,0.704c-0.38,0.2-0.761,0.399-1.136,0.607c-0.487,0.269-0.967,0.55-1.446,0.831
			c-0.501,0.294-0.998,0.593-1.49,0.9c-0.546,0.341-1.091,0.685-1.626,1.042c-0.373,0.249-0.739,0.508-1.107,0.765
			c-0.388,0.271-0.775,0.543-1.157,0.823c-0.377,0.276-0.751,0.556-1.122,0.839c-0.367,0.281-0.728,0.567-1.089,0.856
			c-0.362,0.289-0.725,0.577-1.08,0.874c-0.406,0.339-0.801,0.689-1.198,1.038c-0.552,0.485-1.096,0.98-1.631,1.484
			c-0.354,0.333-0.709,0.665-1.055,1.006c-0.336,0.331-0.664,0.67-0.993,1.008c-0.315,0.324-0.627,0.65-0.934,0.98
			c-0.323,0.346-0.642,0.695-0.957,1.048c-0.31,0.347-0.612,0.701-0.914,1.055c-0.294,0.345-0.592,0.687-0.879,1.038
			c-0.531,0.649-1.05,1.309-1.555,1.979c-0.253,0.336-0.494,0.681-0.741,1.022c-0.296,0.409-0.592,0.819-0.879,1.236
			c-0.254,0.369-0.5,0.742-0.746,1.116c-0.269,0.41-0.534,0.823-0.794,1.239c-0.233,0.372-0.465,0.745-0.69,1.122
			c-0.282,0.473-0.554,0.952-0.824,1.433c-0.184,0.327-0.374,0.65-0.553,0.981c-0.415,0.769-0.812,1.548-1.196,2.335
			c-0.164,0.338-0.318,0.681-0.477,1.022c-0.24,0.516-0.477,1.033-0.703,1.556c-0.16,0.369-0.315,0.74-0.467,1.112
			c-0.217,0.528-0.426,1.06-0.629,1.595c-0.134,0.352-0.269,0.702-0.397,1.057c-0.039,0.108-0.083,0.214-0.121,0.322H231.027
			c-0.046-0.131-0.099-0.259-0.146-0.39c-0.102-0.283-0.211-0.563-0.317-0.844c-0.235-0.624-0.479-1.244-0.733-1.859
			c-0.123-0.297-0.246-0.593-0.373-0.888c-0.278-0.645-0.568-1.282-0.866-1.916c-0.107-0.227-0.209-0.458-0.319-0.684
			c-0.41-0.846-0.837-1.682-1.283-2.506c-0.089-0.164-0.185-0.325-0.275-0.488c-0.366-0.662-0.742-1.318-1.13-1.966
			c-0.16-0.266-0.324-0.53-0.488-0.793c-0.344-0.555-0.695-1.104-1.056-1.647c-0.171-0.259-0.342-0.518-0.517-0.774
			c-0.424-0.619-0.859-1.23-1.303-1.833c-0.112-0.151-0.218-0.307-0.331-0.457c-0.559-0.745-1.135-1.477-1.726-2.196
			c-0.157-0.191-0.32-0.377-0.479-0.566c-0.446-0.531-0.898-1.055-1.361-1.571c-0.212-0.236-0.427-0.47-0.642-0.703
			c-0.443-0.479-0.894-0.951-1.351-1.417c-0.208-0.212-0.413-0.425-0.624-0.634c-0.61-0.604-1.23-1.198-1.864-1.777
			c-0.055-0.05-0.107-0.103-0.162-0.153c-0.689-0.626-1.395-1.233-2.112-1.829c-0.216-0.179-0.436-0.352-0.654-0.529
			c-0.517-0.419-1.04-0.831-1.571-1.234c-0.253-0.193-0.508-0.383-0.764-0.572c-0.543-0.4-1.093-0.789-1.648-1.172
			c-0.224-0.154-0.445-0.312-0.671-0.463c-0.776-0.52-1.562-1.027-2.362-1.514c-0.101-0.062-0.206-0.119-0.308-0.18
			c-0.703-0.422-1.415-0.831-2.135-1.227c-0.266-0.146-0.535-0.286-0.803-0.429c-0.579-0.308-1.164-0.607-1.753-0.898
			c-0.286-0.141-0.572-0.281-0.861-0.418c-0.646-0.306-1.298-0.599-1.955-0.884c-0.217-0.094-0.431-0.193-0.649-0.285
			c-0.87-0.365-1.749-0.712-2.638-1.04c-0.203-0.075-0.409-0.141-0.612-0.214c-0.697-0.249-1.4-0.488-2.108-0.713
			c-0.304-0.097-0.61-0.188-0.916-0.281c-0.639-0.193-1.282-0.375-1.93-0.548c-0.304-0.081-0.607-0.164-0.913-0.241
			c-0.778-0.195-1.561-0.375-2.35-0.542c-0.161-0.034-0.32-0.074-0.481-0.107c-0.947-0.192-1.902-0.361-2.864-0.511
			c-0.268-0.042-0.539-0.075-0.809-0.113c-0.707-0.101-1.417-0.193-2.132-0.271c-0.333-0.036-0.668-0.069-1.003-0.1
			c-0.694-0.065-1.391-0.117-2.091-0.159c-0.307-0.019-0.613-0.041-0.921-0.055c-0.996-0.046-1.995-0.076-3.002-0.076
			c-1.067,0-2.126,0.029-3.18,0.08c-0.351,0.017-0.697,0.051-1.047,0.074c-0.7,0.046-1.4,0.091-2.094,0.159
			c-0.413,0.04-0.82,0.097-1.231,0.145c-0.624,0.073-1.248,0.146-1.867,0.237c-0.433,0.064-0.862,0.141-1.293,0.214
			c-0.588,0.099-1.176,0.199-1.759,0.314c-0.439,0.087-0.874,0.184-1.31,0.28c-0.566,0.124-1.131,0.251-1.692,0.39
			c-0.438,0.109-0.872,0.225-1.307,0.343c-0.55,0.149-1.098,0.303-1.642,0.466c-0.433,0.13-0.863,0.265-1.292,0.404
			c-0.537,0.174-1.071,0.354-1.602,0.542c-0.424,0.15-0.846,0.302-1.266,0.46c-0.528,0.199-1.051,0.407-1.573,0.62
			c-0.41,0.167-0.82,0.335-1.226,0.51c-0.523,0.226-1.04,0.463-1.556,0.703c-0.393,0.182-0.787,0.363-1.175,0.553
			c-0.523,0.256-1.038,0.526-1.554,0.796c-0.368,0.193-0.74,0.381-1.104,0.581c-0.537,0.295-1.064,0.605-1.592,0.915
			c-0.33,0.194-0.665,0.381-0.991,0.58c-0.595,0.364-1.177,0.745-1.759,1.128c-0.247,0.162-0.5,0.316-0.745,0.482
			c-0.821,0.556-1.63,1.13-2.424,1.723c-0.118,0.088-0.23,0.182-0.346,0.271c-0.672,0.509-1.336,1.027-1.987,1.561
			c-0.27,0.222-0.529,0.455-0.795,0.68c-0.422,0.358-0.849,0.71-1.261,1.079c-0.412-0.369-0.839-0.721-1.261-1.079
			c-0.266-0.226-0.526-0.459-0.795-0.68c-0.65-0.535-1.315-1.052-1.987-1.561c-0.117-0.089-0.229-0.183-0.346-0.271
			c-0.794-0.593-1.602-1.167-2.424-1.723c-0.245-0.166-0.498-0.32-0.745-0.482c-0.582-0.382-1.164-0.764-1.759-1.128
			c-0.326-0.2-0.661-0.386-0.991-0.58c-0.528-0.31-1.055-0.62-1.592-0.915c-0.364-0.2-0.735-0.388-1.104-0.581
			c-0.515-0.27-1.03-0.539-1.554-0.796c-0.388-0.19-0.782-0.37-1.175-0.553c-0.516-0.24-1.032-0.477-1.556-0.703
			c-0.406-0.175-0.816-0.343-1.226-0.51c-0.521-0.213-1.045-0.421-1.573-0.62c-0.42-0.158-0.842-0.311-1.266-0.46
			c-0.531-0.187-1.065-0.368-1.602-0.542c-0.429-0.139-0.859-0.274-1.292-0.404c-0.544-0.163-1.092-0.317-1.642-0.466
			c-0.434-0.118-0.869-0.234-1.307-0.343c-0.561-0.139-1.126-0.266-1.692-0.39c-0.436-0.096-0.871-0.193-1.31-0.28
			c-0.583-0.115-1.17-0.215-1.759-0.314c-0.431-0.073-0.859-0.15-1.293-0.214c-0.619-0.091-1.243-0.164-1.867-0.237
			c-0.41-0.048-0.818-0.104-1.231-0.145c-0.694-0.068-1.394-0.114-2.094-0.159c-0.349-0.023-0.696-0.057-1.047-0.074
			c-1.054-0.052-2.113-0.08-3.18-0.08s-2.126,0.029-3.18,0.08c-0.351,0.017-0.697,0.051-1.047,0.074
			c-0.7,0.046-1.4,0.091-2.094,0.159c-0.413,0.04-0.82,0.097-1.231,0.145c-0.624,0.073-1.248,0.146-1.867,0.237
			c-0.433,0.064-0.862,0.141-1.293,0.214c-0.588,0.099-1.176,0.199-1.759,0.314c-0.439,0.087-0.874,0.184-1.31,0.28
			c-0.566,0.124-1.131,0.251-1.692,0.39c-0.438,0.109-0.872,0.225-1.307,0.343c-0.55,0.149-1.098,0.303-1.642,0.466
			c-0.433,0.13-0.863,0.265-1.293,0.404c-0.537,0.174-1.07,0.354-1.601,0.541c-0.424,0.15-0.846,0.302-1.266,0.46
			c-0.528,0.199-1.051,0.407-1.573,0.62c-0.41,0.167-0.82,0.335-1.226,0.51c-0.523,0.226-1.039,0.463-1.555,0.703
			c-0.393,0.183-0.788,0.363-1.176,0.553c-0.522,0.256-1.036,0.525-1.551,0.794c-0.369,0.194-0.742,0.382-1.107,0.583
			c-0.536,0.294-1.061,0.604-1.588,0.913c-0.331,0.195-0.667,0.382-0.995,0.583c-0.592,0.362-1.172,0.742-1.752,1.123
			c-0.249,0.164-0.505,0.319-0.751,0.486c-0.821,0.556-1.629,1.13-2.422,1.722c-0.122,0.091-0.238,0.189-0.359,0.281
			c-0.667,0.506-1.328,1.02-1.974,1.551c-0.272,0.223-0.533,0.458-0.801,0.685c-0.42,0.357-0.845,0.707-1.256,1.075v-37.623H384
			h85.333V346.964z M64,96h298.667v21.333v149.333H64V96z M85.333,416C73.542,416,64,406.458,64,394.667s9.542-21.333,21.333-21.333
			s21.333,9.542,21.333,21.333S97.125,416,85.333,416z M170.667,416c-11.791,0-21.333-9.542-21.333-21.333
			s9.542-21.333,21.333-21.333S192,382.875,192,394.667S182.458,416,170.667,416z M426.667,416
			c-11.791,0-21.333-9.542-21.333-21.333c0-11.782,9.554-21.333,21.333-21.333S448,382.884,448,394.667
			C448,406.458,438.458,416,426.667,416z"/>
	</g>
</g>
<g>
</g>
<g>
</g>
<g>
</g>
<g>
</g>
<g>
</g>
<g>
</g>
<g>
</g>
<g>
</g>
<g>
</g>
<g>
</g>
<g>
</g>
<g>
</g>
<g>
</g>
<g>
</g>
<g>
</g>
</svg>
